# xmcd
#
# Track frame offsets: 
#        150
#        14739
#        28352
#        42508
#        55140
#        67519
#        81423
#        95547
#        108765
#        124294
#        137697
#        152368
#        165049
#        179168
#        193360
#        207120
#        222040
#        235704
#        249712
#        260186
#
# Disc length: 3672 seconds
#
# Revision: 4
# Processed by: cddbd v1.5.2PL0 Copyright (c) Steve Scherf et al.
# Submitted via: ExactAudioCopy v0.99pb4
#
DISCID=1e0e5614
DTITLE=Fats Waller - Black Maria  [CD 8-10]
DYEAR=1900
DGENRE=Jazz, Swing
TTITLE0=Black Maria
TTITLE1=Mighty Fine
TTITLE2=The Moon Is Low
TTITLE3=The Moon Is Low - Part 2
TTITLE4=Old Grand Dad  (1940-41)
TTITLE5=Fat And Greasy
TTITLE6=Little Curly Hair In A High Chair
TTITLE7=Square From Delaware
TTITLE8=You Run Your Mouth, I'll Run My Business
TTITLE9=Too Tired
TTITLE10=''Send Me'' Jackson
TTITLE11=Eep, Ipe, Wanna Piece Of Pie
TTITLE12=Stop Pretending
TTITLE13=I'll Never Smile Again
TTITLE14=My Mommie Sent Me To The Store
TTITLE15=Dry Bones
TTITLE16=Georgia On My Mind
TTITLE17=Rockin' Chair
TTITLE18=Carolina Shout
TTITLE19=Honeysuckle Rose
EXTD=
EXTT0=
EXTT1=
EXTT2=
EXTT3=
EXTT4=
EXTT5=
EXTT6=
EXTT7=
EXTT8=
EXTT9=
EXTT10=
EXTT11=
EXTT12=
EXTT13=
EXTT14=
EXTT15=
EXTT16=
EXTT17=
EXTT18=
EXTT19=
PLAYORDER=
